<svg width="12" height="17" viewBox="0 0 12 17" fill="none" xmlns="http://www.w3.org/2000/svg">
<path d="M6.75 1.75C6.75 2.33333 6.92708 2.89583 7.28125 3.4375C7.65625 3.95833 8.09375 4.44792 8.59375 4.90625C9.11458 5.34375 9.625 5.82292 10.125 6.34375C10.6458 6.86458 11.0833 7.53125 11.4375 8.34375C11.8125 9.13542 12 10.0208 12 11C12 12.6458 11.4062 14.0521 10.2188 15.2188C9.05208 16.4062 7.64583 17 6 17C4.35417 17 2.9375 16.4062 1.75 15.2188C0.583333 14.0521 0 12.6458 0 11C0 10.0208 0.229167 9.09375 0.6875 8.21875C1.14583 7.34375 1.77083 6.625 2.5625 6.0625C2.8125 5.89583 3.07292 5.88542 3.34375 6.03125C3.61458 6.17708 3.75 6.39583 3.75 6.6875V10C3.75 10.3542 3.86458 10.6562 4.09375 10.9062C4.34375 11.1354 4.64583 11.25 5 11.25C5.35417 11.25 5.64583 11.1354 5.875 10.9062C6.125 10.6562 6.25 10.3542 6.25 10C6.25 9.75 6.125 9.40625 5.875 8.96875C5.625 8.53125 5.36458 8.07292 5.09375 7.59375C4.82292 7.11458 4.58333 6.57292 4.375 5.96875C4.1875 5.36458 4.16667 4.65625 4.3125 3.84375C4.45833 3.03125 4.8125 2.19792 5.375 1.34375C5.58333 1.03125 5.86458 0.927083 6.21875 1.03125C6.57292 1.13542 6.75 1.375 6.75 1.75ZM2.8125 14.1875C3.6875 15.0625 4.75 15.5 6 15.5C7.25 15.5 8.3125 15.0625 9.1875 14.1875C10.0625 13.3125 10.5 12.25 10.5 11C10.5 10.1458 10.3021 9.36458 9.90625 8.65625C9.53125 7.92708 9.09375 7.34375 8.59375 6.90625C8.11458 6.46875 7.58333 5.9375 7 5.3125C6.4375 4.6875 6.02083 4.08333 5.75 3.5C5.54167 4.29167 5.59375 5.08333 5.90625 5.875C6.23958 6.64583 6.625 7.39583 7.0625 8.125C7.52083 8.85417 7.75 9.47917 7.75 10C7.75 10.75 7.47917 11.3958 6.9375 11.9375C6.39583 12.4792 5.75 12.75 5 12.75C4.25 12.75 3.60417 12.4792 3.0625 11.9375C2.52083 11.3958 2.25 10.75 2.25 10V8.25C1.75 9 1.5 9.91667 1.5 11C1.5 12.25 1.9375 13.3125 2.8125 14.1875Z" fill="white"/>
</svg>
